<?xml version="1.0" encoding="UTF-8" standalone="no"?>
<!-- Created with Inkscape (http://www.inkscape.org/) -->

<svg
   xmlns:dc="http://purl.org/dc/elements/1.1/"
   xmlns:cc="http://creativecommons.org/ns#"
   xmlns:rdf="http://www.w3.org/1999/02/22-rdf-syntax-ns#"
   xmlns:svg="http://www.w3.org/2000/svg"
   xmlns="http://www.w3.org/2000/svg"
   xmlns:sodipodi="http://sodipodi.sourceforge.net/DTD/sodipodi-0.dtd"
   xmlns:inkscape="http://www.inkscape.org/namespaces/inkscape"
   width="486.80151"
   height="60.01722"
   viewBox="0 0 128.79956 15.879556"
   version="1.1"
   id="svg9276"
   inkscape:version="0.92.0 r15299"
   sodipodi:docname="jerrys artarama.svg">
  <defs
     id="defs9270" />
  <sodipodi:namedview
     id="base"
     pagecolor="#ffffff"
     bordercolor="#666666"
     borderopacity="1.0"
     inkscape:pageopacity="0.0"
     inkscape:pageshadow="2"
     inkscape:zoom="1.8426401"
     inkscape:cx="243.40076"
     inkscape:cy="30.00861"
     inkscape:document-units="mm"
     inkscape:current-layer="layer1"
     showgrid="false"
     fit-margin-top="0"
     fit-margin-left="0"
     fit-margin-right="0"
     fit-margin-bottom="0"
     units="px"
     inkscape:window-width="1280"
     inkscape:window-height="744"
     inkscape:window-x="-4"
     inkscape:window-y="-4"
     inkscape:window-maximized="1" />
  <metadata
     id="metadata9273">
    <rdf:RDF>
      <cc:Work
         rdf:about="">
        <dc:format>image/svg+xml</dc:format>
        <dc:type
           rdf:resource="http://purl.org/dc/dcmitype/StillImage" />
        <dc:title></dc:title>
      </cc:Work>
    </rdf:RDF>
  </metadata>
  <g
     inkscape:label="Layer 1"
     inkscape:groupmode="layer"
     id="layer1"
     transform="translate(-66.6446,-172.37898)">
    <g
       transform="translate(-1026.8389,-487.48941)"
       id="g9213">
      <path
         style="fill:#dc4654;stroke-width:0.26458332"
         inkscape:connector-curvature="0"
         class="st0"
         d="m 1207.2283,665.87899 c -0.5821,1.56104 -1.1906,3.12208 -1.7727,4.68312 -0.026,0 -0.053,0 -0.079,0 -0.5821,-1.56104 -1.1642,-3.09562 -1.7198,-4.65667 -0.026,0 -0.026,0 -0.053,0 -0.053,0.52917 -0.1323,1.05834 -0.1852,1.56105 -0.1058,0.87312 -0.1852,1.71979 -0.2646,2.59291 -0.027,0.23813 -0.1058,0.34396 -0.3704,0.3175 -1.0319,-0.0794 -2.0373,-0.23812 -3.0692,-0.18521 -0.8466,0.0529 -1.6933,0.10584 -2.54,0.18521 -0.2381,0.0265 -0.3175,-0.0529 -0.3704,-0.26458 -0.1058,-0.39688 -0.2117,-0.79375 -0.3175,-1.19063 -0.053,-0.15875 -0.1058,-0.21166 -0.291,-0.21166 -0.7409,0 -1.4552,0 -2.1961,0 -0.1587,0 -0.2381,0.0529 -0.291,0.21166 -0.1059,0.42334 -0.2381,0.82021 -0.3704,1.24355 -0.053,0.15875 -0.1059,0.23812 -0.2911,0.21166 -0.926,-0.0794 -1.8785,-0.13229 -2.8046,-0.21166 -0.291,-0.0265 -0.1323,-0.18521 -0.1058,-0.29105 0.4498,-1.40229 0.8996,-2.80458 1.3494,-4.18041 0.5556,-1.69334 1.1112,-3.36021 1.6404,-5.05354 0.053,-0.18521 0.1323,-0.26459 0.344,-0.26459 1.0583,0 2.1166,0 3.175,0 0.2116,0 0.291,0.0529 0.3704,0.26459 0.9789,2.93687 1.9579,5.87375 2.9104,8.81062 0.053,0.13229 0.079,0.26458 0.1852,0.37042 0.1852,-1.34938 0.344,-2.69875 0.5292,-4.07459 0.2116,-1.71979 0.4233,-3.41312 0.635,-5.13291 0.026,-0.18521 0.1058,-0.23813 0.291,-0.23813 0.7673,0 1.5346,0 2.2754,0 0.2117,0 0.2911,0.0529 0.3704,0.26459 0.3969,1.08479 0.7938,2.16958 1.1907,3.25437 0.1587,-0.21167 0.2116,-0.44979 0.291,-0.66146 0.3175,-0.87312 0.635,-1.71979 0.9525,-2.59291 0.079,-0.21167 0.1852,-0.29105 0.3969,-0.29105 0.7408,0.0265 1.4816,0 2.2225,0 0.2116,0 0.291,0.0794 0.3175,0.29105 0.3175,2.56645 0.635,5.13291 0.9525,7.69937 0.053,0.44979 0.1058,0.89958 0.1587,1.37583 0.1323,-0.10583 0.1323,-0.23812 0.1588,-0.37041 0.9525,-2.91042 1.905,-5.79438 2.831,-8.70479 0.079,-0.23813 0.1852,-0.29105 0.4234,-0.29105 1.0318,0 2.0637,0.0265 3.122,0 0.2117,0 0.3175,0.0794 0.3705,0.26459 1.0054,3.06916 2.0108,6.11187 3.0427,9.15458 0.1058,0.29104 0.053,0.34396 -0.2646,0.37042 -0.8996,0.0529 -1.7992,0.10583 -2.6988,0.18521 -0.2116,0.0265 -0.291,-0.0529 -0.3439,-0.23813 -0.1059,-0.39687 -0.2117,-0.76729 -0.3175,-1.16417 -0.053,-0.1852 -0.1323,-0.26458 -0.344,-0.26458 -0.7144,0.0265 -1.4287,0.0265 -2.1167,0 -0.2116,0 -0.2645,0.0794 -0.3175,0.26458 -0.1058,0.39688 -0.2381,0.79375 -0.3439,1.19063 -0.053,0.18521 -0.1323,0.26458 -0.344,0.23812 -0.6085,-0.0529 -1.2171,-0.0794 -1.7991,-0.13229 -1.2171,-0.13229 -2.4077,0.0529 -3.5984,0.10584 -0.5027,0.0265 -0.5027,0.0529 -0.5291,-0.4498 -0.1323,-1.34937 -0.2382,-2.69875 -0.3705,-4.04812 0.026,0.0529 0,0.0529 -0.026,0.0529 z m -12.1179,-2.54 c -0.026,0 -0.053,0 -0.053,0 -0.1853,0.76729 -0.3969,1.53458 -0.5821,2.30187 -0.1588,0.66146 -0.1588,0.66146 0.5291,0.66146 0.026,0 0.053,0 0.053,0 0.7672,0 0.7672,0 0.582,-0.74083 -0.1587,-0.7673 -0.3439,-1.50813 -0.5291,-2.2225 z m 20.5846,0 c -0.026,0 -0.053,0 -0.079,0 -0.2381,0.92604 -0.4498,1.82562 -0.6879,2.75166 -0.053,0.15875 0,0.21167 0.1587,0.21167 0.3704,0 0.7408,0 1.1113,0 0.1587,0 0.1852,-0.0529 0.1587,-0.18521 -0.2117,-0.9525 -0.4498,-1.87854 -0.6614,-2.77812 z"
         id="path8799" />
      <path
         style="fill:#dc4654;stroke-width:0.26458332"
         inkscape:connector-curvature="0"
         class="st0"
         d="m 1151.4277,660.40211 c 0.5291,0 1.0848,0 1.6139,0 0.1852,0 0.2646,0.0529 0.3175,0.21167 1.0319,3.09562 2.0373,6.19125 3.0692,9.28687 0.053,0.18521 0.053,0.29104 -0.1852,0.29104 -0.9261,0.0529 -1.8521,0.10584 -2.7781,0.18521 -0.2117,0.0265 -0.2911,-0.0529 -0.344,-0.23812 -0.1058,-0.39688 -0.2381,-0.76729 -0.3175,-1.16417 -0.053,-0.18521 -0.1323,-0.26458 -0.344,-0.26458 -0.6879,0.0265 -1.4023,0.0265 -2.0902,0 -0.2381,0 -0.3175,0.0794 -0.3704,0.29104 -0.1058,0.39687 -0.2381,0.79375 -0.3439,1.19062 -0.026,0.1323 -0.079,0.21167 -0.2646,0.21167 -0.9525,-0.0794 -1.905,-0.13229 -2.8575,-0.21167 -0.2911,-0.0264 -0.1059,-0.21166 -0.079,-0.29104 0.4762,-1.48166 0.9525,-2.96333 1.4287,-4.41854 0.5292,-1.61396 1.0584,-3.20146 1.5611,-4.81542 0.053,-0.21166 0.1587,-0.26458 0.3439,-0.26458 0.5821,0.0265 1.1113,0 1.6405,0 z m 0,2.93688 c -0.026,0 -0.053,0 -0.079,0 -0.2117,0.84666 -0.4233,1.71979 -0.635,2.56645 -0.1058,0.37042 -0.079,0.37042 0.3175,0.37042 0.1058,0 0.2381,0 0.3439,0 0.7673,0 0.7673,0 0.5821,-0.74083 -0.1587,-0.74084 -0.3439,-1.48167 -0.5291,-2.19604 z"
         id="path8801" />
      <path
         style="fill:#dc4654;stroke-width:0.26458332"
         inkscape:connector-curvature="0"
         class="st0"
         d="m 1176.8277,660.40211 c 0.5291,0 1.0848,0 1.6139,0 0.1588,0 0.2381,0.0529 0.2911,0.21167 1.0318,3.09562 2.0637,6.21771 3.0956,9.31333 0.053,0.18521 0.053,0.26458 -0.1588,0.26458 -0.926,0.0529 -1.8785,0.1323 -2.8045,0.18521 -0.1853,0.0265 -0.2911,-0.0265 -0.344,-0.23812 -0.1058,-0.39688 -0.2381,-0.79375 -0.3175,-1.19063 -0.053,-0.18521 -0.1058,-0.26458 -0.3175,-0.26458 -0.7144,0.0265 -1.4288,0.0265 -2.1167,0 -0.2116,0 -0.291,0.0794 -0.3439,0.26458 -0.1059,0.39688 -0.2382,0.79375 -0.344,1.19063 -0.053,0.15875 -0.1323,0.23812 -0.3175,0.21166 -0.926,-0.0794 -1.8521,-0.13229 -2.7781,-0.21166 -0.3175,-0.0265 -0.1323,-0.21167 -0.1058,-0.3175 0.6614,-2.09021 1.3493,-4.15396 2.0108,-6.24417 0.3175,-1.00542 0.6614,-2.01083 0.9789,-3.01625 0.053,-0.18521 0.1323,-0.23812 0.344,-0.23812 0.5556,0.10583 1.0848,0.0794 1.614,0.0794 z m 0,2.93688 c -0.026,0 -0.053,0 -0.079,0 -0.2381,0.92604 -0.4498,1.82562 -0.6879,2.75166 -0.053,0.15875 0,0.21167 0.1587,0.21167 0.3704,0 0.7409,0 1.1113,0 0.1323,0 0.1852,-0.0529 0.1587,-0.18521 -0.2116,-0.9525 -0.4233,-1.87854 -0.6614,-2.77812 z"
         id="path8803" />
      <path
         style="fill:#dc4654;stroke-width:0.26458332"
         inkscape:connector-curvature="0"
         class="st0"
         d="m 1109.65,666.38169 c 0,1.13771 0,2.27542 0,3.41313 0,0.3175 -0.079,0.39687 -0.3969,0.39687 -0.7409,0.0265 -1.5081,0.10584 -2.249,0.18521 -0.2116,0.0265 -0.2646,-0.0529 -0.2646,-0.26458 0,-3.14854 0,-6.29708 0,-9.47208 0,-0.21167 0.053,-0.26459 0.2646,-0.26459 1.2436,0 2.4871,-0.0265 3.7042,0.0265 1.2171,0.0265 2.3019,0.44979 2.8839,1.61396 0.4763,0.9525 0.5292,1.93146 0.053,2.91042 -0.1852,0.37041 -0.4234,0.66145 -0.7938,0.84666 -0.291,0.13229 -0.2381,0.29104 -0.1587,0.52917 0.5027,1.19062 1.0054,2.38125 1.5345,3.59833 0.1059,0.23813 0.1059,0.3175 -0.1852,0.3175 -0.8731,0.0529 -1.7198,0.10584 -2.5929,0.18521 -0.2116,0.0265 -0.3175,-0.0529 -0.3969,-0.26458 -0.4233,-1.19063 -0.8731,-2.35479 -1.2964,-3.54542 -0.026,-0.0794 -0.053,-0.15875 -0.079,-0.23812 0.026,0.0265 0,0.0265 -0.026,0.0265 z m 0,-2.03729 c 0,0.21167 0,0.44979 0,0.66146 0,0.52917 0.026,0.55563 0.5556,0.47625 0.053,0 0.1058,-0.0265 0.1587,-0.0265 0.5292,-0.15875 0.7673,-0.68791 0.6615,-1.40229 -0.079,-0.55562 -0.4498,-0.84667 -1.0848,-0.84667 -0.2117,0 -0.291,0.0529 -0.2646,0.26459 -0.026,0.29104 -0.026,0.58208 -0.026,0.87312 z"
         id="path8805" />
      <path
         style="fill:#dc4654;stroke-width:0.26458332"
         inkscape:connector-curvature="0"
         class="st0"
         d="m 1118.4341,666.38169 c 0,1.13771 0,2.27542 0,3.41313 0,0.29104 -0.079,0.39687 -0.3704,0.39687 -0.7408,0.0265 -1.5081,0.10584 -2.249,0.18521 -0.2116,0.0265 -0.2645,-0.0265 -0.2645,-0.23812 0,-3.175 0,-6.32354 0,-9.49854 0,-0.21167 0.079,-0.23813 0.2645,-0.23813 1.2436,0 2.4871,-0.0265 3.7571,0 1.2171,0.0265 2.2754,0.44979 2.8575,1.61396 0.4763,0.9525 0.5292,1.93146 0.053,2.91042 -0.1852,0.37041 -0.4497,0.68791 -0.8202,0.87312 -0.2381,0.13229 -0.2381,0.26458 -0.1323,0.47625 0.5028,1.19063 1.0055,2.38125 1.5346,3.59833 0.1323,0.34396 0.1323,0.3175 -0.2381,0.34396 -0.8467,0.0529 -1.6933,0.10584 -2.54,0.18521 -0.2117,0.0265 -0.3175,-0.0529 -0.3969,-0.26458 -0.4233,-1.19063 -0.8731,-2.35479 -1.2964,-3.54542 -0.027,-0.0794 -0.053,-0.15875 -0.079,-0.23812 -0.053,0.0265 -0.079,0.0265 -0.079,0.0265 z m -0.026,-2.03729 c 0,0.21167 0,0.44979 0,0.66146 0,0.55563 0.053,0.58208 0.6085,0.50271 0.053,0 0.079,-0.0265 0.1323,-0.0265 0.5027,-0.15875 0.7673,-0.71437 0.635,-1.42875 -0.079,-0.55562 -0.4763,-0.84667 -1.1113,-0.84667 -0.1852,0 -0.2645,0.0529 -0.2645,0.23813 0,0.29104 0,0.60854 0,0.89958 z"
         id="path8807" />
      <path
         style="fill:#dc4654;stroke-width:0.26458332"
         inkscape:connector-curvature="0"
         class="st0"
         d="m 1159.9208,666.38169 c -0.053,0.10584 -0.027,0.21167 -0.027,0.3175 0,1.05834 0,2.14313 0,3.20146 0,0.15875 0.027,0.29104 -0.2381,0.3175 -0.7937,0.0529 -1.5875,0.10584 -2.3812,0.18521 -0.2117,0.0265 -0.2911,-0.0265 -0.2911,-0.26458 0,-3.14854 0,-6.29709 0,-9.47209 0,-0.21166 0.079,-0.26458 0.2646,-0.26458 1.2171,0 2.4606,-0.0265 3.6777,0 1.2171,0.0265 2.3019,0.42333 2.9104,1.5875 0.4234,0.82021 0.5027,1.66688 0.2117,2.56646 -0.1588,0.52917 -0.4763,0.97896 -0.979,1.24354 -0.2381,0.13229 -0.2116,0.23813 -0.1323,0.44979 0.5027,1.21709 1.0055,2.40771 1.5346,3.62479 0.1323,0.29105 0.053,0.34396 -0.2381,0.34396 -0.8467,0.0529 -1.6933,0.10584 -2.54,0.18521 -0.2381,0.0265 -0.344,-0.0529 -0.4233,-0.26458 -0.4234,-1.16417 -0.8467,-2.32834 -1.2965,-3.51896 0.053,-0.0794 0.026,-0.18521 -0.053,-0.23813 z m -0.053,-2.03729 c 0,0.21167 0,0.44979 0,0.66146 0,0.52917 0.026,0.55563 0.5556,0.47625 0.053,0 0.1058,-0.0265 0.1587,-0.0265 0.5292,-0.15875 0.8203,-0.79375 0.635,-1.50812 -0.1322,-0.55563 -0.635,-0.87313 -1.217,-0.76729 -0.1588,0.0264 -0.1323,0.13229 -0.1323,0.23812 0,0.3175 0,0.635 0,0.92604 z"
         id="path8809" />
      <path
         style="fill:#dc4654;stroke-width:0.26458332"
         inkscape:connector-curvature="0"
         class="st0"
         d="m 1185.2943,666.38169 c 0,1.13771 0,2.27542 0,3.41313 0,0.3175 -0.079,0.39687 -0.3968,0.39687 -0.7409,0.0265 -1.5082,0.10584 -2.249,0.18521 -0.2117,0.0265 -0.2646,-0.0529 -0.2646,-0.26458 0,-3.14854 0,-6.29708 0,-9.47208 0,-0.21167 0.053,-0.26459 0.2646,-0.26459 1.2435,0 2.4871,-0.0265 3.7042,0.0265 1.217,0.0265 2.3018,0.44979 2.8839,1.61396 0.4763,0.9525 0.5292,1.93146 0.053,2.91042 -0.1852,0.37041 -0.4233,0.66145 -0.7937,0.84666 -0.2911,0.13229 -0.2381,0.29104 -0.1588,0.52917 0.5027,1.19062 1.0055,2.38125 1.5346,3.59833 0.1059,0.23813 0.1059,0.3175 -0.1852,0.3175 -0.8731,0.0529 -1.7198,0.10584 -2.5929,0.18521 -0.2117,0.0265 -0.3175,-0.0529 -0.3969,-0.26458 -0.4233,-1.19063 -0.8731,-2.35479 -1.2964,-3.54542 -0.026,-0.0794 -0.053,-0.15875 -0.079,-0.23812 0,0.0265 0,0.0265 -0.026,0.0265 z m -0.026,-2.06375 c 0,0 0,0 0,0 0,0.3175 0,0.635 0,0.9525 0,0.10584 -0.026,0.21167 0.1323,0.23813 0.5291,0.10583 1.0318,-0.18521 1.1906,-0.68792 0.079,-0.21166 0.079,-0.44979 0.053,-0.66146 -0.079,-0.79375 -0.6085,-0.97895 -1.2435,-0.9525 -0.1323,0 -0.1323,0.10584 -0.1323,0.18521 0,0.3175 0,0.635 0,0.92604 z"
         id="path8811" />
      <path
         style="fill:#dc4654;stroke-width:0.26458332"
         inkscape:connector-curvature="0"
         class="st0"
         d="m 1141.5587,661.85732 c 0,0.37042 0,0.76729 0,1.13771 0,0.21166 -0.053,0.23812 -0.2646,0.18521 -0.7144,-0.21167 -1.4287,-0.3175 -2.196,-0.29105 -0.2117,0 -0.4234,0.0265 -0.6086,0.1323 -0.2645,0.15875 -0.2645,0.42333 -0.026,0.58208 0.2646,0.18521 0.5821,0.29104 0.8996,0.39687 0.7143,0.29105 1.4287,0.58209 1.9843,1.13771 1.1642,1.11125 1.1113,3.83646 -1.0583,4.7625 -1.1112,0.47625 -2.2754,0.50271 -3.466,0.42334 -0.4234,-0.0265 -0.8467,-0.1323 -1.2965,-0.18521 -0.1587,-0.0265 -0.2381,-0.10584 -0.2381,-0.26459 0,-0.76729 0,-1.53458 0,-2.32833 0,-0.23812 0.079,-0.26458 0.291,-0.21167 0.7673,0.15875 1.5611,0.26459 2.3548,0.23813 0.2117,0 0.3969,-0.0265 0.5821,-0.10583 0.1852,-0.0529 0.3175,-0.15875 0.344,-0.37042 0.026,-0.18521 -0.1059,-0.3175 -0.2382,-0.42333 -0.2381,-0.15875 -0.5027,-0.23813 -0.7937,-0.34396 -0.5556,-0.21167 -1.1113,-0.42334 -1.5875,-0.76729 -1.5875,-1.0848 -1.4023,-4.10105 0.6085,-5.00063 0.9261,-0.42333 1.905,-0.47625 2.884,-0.39687 0.4762,0.0264 0.9525,0.10583 1.4552,0.15875 0.2381,0.0265 0.3439,0.10583 0.3175,0.37041 0.053,0.42334 0.053,0.79375 0.053,1.16417 z"
         id="path8813" />
      <path
         style="fill:#dc4654;stroke-width:0.26458332"
         inkscape:connector-curvature="0"
         class="st0"
         d="m 1099.5958,665.2969 c 0,-1.53458 0,-3.04271 0,-4.57729 0,-0.23812 0.053,-0.3175 0.291,-0.3175 1.614,0 3.2279,0 4.8154,0 0.1853,0 0.2911,0.0529 0.3175,0.23813 0.1588,0.71437 0.3175,1.4552 0.5028,2.16958 0.053,0.21167 -0.026,0.23812 -0.1853,0.23812 -0.7937,0 -1.5875,0 -2.3812,0 -0.2117,0 -0.3175,0.0265 -0.3175,0.29105 0,0.66145 0,0.66145 0.6615,0.66145 0.3439,0 0.6879,0 1.0054,0 0.1852,0 0.2381,0.0529 0.2381,0.23813 0,0.66146 0,1.32292 0,2.01083 0,0.18521 -0.053,0.23813 -0.2381,0.23813 -0.4763,0 -0.9525,0 -1.4288,0 -0.1852,0 -0.2381,0.0529 -0.2381,0.26458 0,0.79375 -0.026,0.79375 0.7673,0.79375 0.6879,0 1.4023,0 2.0902,0 0.2117,0 0.291,0.0265 0.2381,0.26458 -0.1852,0.74084 -0.3439,1.45521 -0.5027,2.19605 -0.053,0.1852 -0.1323,0.26458 -0.3439,0.26458 -1.6669,0 -3.3338,0 -5.0007,0 -0.2116,0 -0.291,-0.0529 -0.291,-0.29104 0,-1.61396 0,-3.14854 0,-4.68313 z"
         id="path8815" />
      <path
         style="fill:#dc4654;stroke-width:0.26458332"
         inkscape:connector-curvature="0"
         class="st0"
         d="m 1127.5622,663.47128 c 0.3175,-1.03188 0.635,-2.01084 0.8996,-2.98979 0.079,-0.26459 0.1852,-0.3175 0.4498,-0.29105 0.8467,0.10584 1.6934,0.15875 2.5136,0.21167 0.2381,0.0265 0.291,0.0794 0.2116,0.3175 -1.1906,3.12208 -2.3548,6.27063 -3.5454,9.39271 -0.053,0.15875 -0.1323,0.29104 -0.3439,0.26458 -0.9525,-0.10583 -1.8786,-0.21166 -2.8311,-0.29104 -0.2646,-0.0265 -0.2646,-0.10583 -0.1587,-0.3175 0.3968,-0.84667 0.7673,-1.71979 1.1641,-2.56646 0.079,-0.15875 0.079,-0.29104 0,-0.47625 -0.8996,-1.98437 -1.7991,-3.96875 -2.7252,-5.97958 -0.1587,-0.3175 -0.1587,-0.3175 0.2117,-0.34396 0.926,-0.0794 1.8256,-0.15875 2.7517,-0.23812 0.2116,-0.0265 0.2645,0.0529 0.3439,0.23812 0.3175,1.00542 0.6879,1.98438 1.0583,3.06917 z"
         id="path8817" />
      <path
         style="fill:#dc4654;stroke-width:0.26458332"
         inkscape:connector-curvature="0"
         class="st0"
         d="m 1166.9587,666.83149 c 0,-1.05834 0,-2.14313 0,-3.20146 0,-0.26459 -0.053,-0.37042 -0.344,-0.34396 -0.5027,0.0265 -1.0054,0 -1.5345,0 -0.1852,0 -0.2382,-0.0265 -0.1852,-0.23813 0.1852,-0.8202 0.3704,-1.61395 0.5556,-2.43416 0.026,-0.15875 0.1058,-0.21167 0.291,-0.21167 1.9579,0 3.8894,0 5.8473,0 0.1852,0 0.2646,0.0529 0.2646,0.23813 0,0.79375 0,1.5875 0,2.38125 0,0.1852 -0.053,0.26458 -0.2381,0.26458 -0.4234,0 -0.8467,0 -1.27,0 -0.2646,-0.0265 -0.3175,0.0794 -0.3175,0.3175 0,2.03729 0,4.07458 0,6.08542 0,0.47625 0,0.47625 -0.4763,0.52916 -0.7673,0.0529 -1.5346,0.10584 -2.3019,0.18521 -0.2116,0.0265 -0.2645,-0.0529 -0.2645,-0.26458 0,-1.08479 -0.027,-2.19604 -0.027,-3.30729 z"
         id="path8819" />
      <path
         style="fill:#dc4654;stroke-width:0.26458332"
         inkscape:connector-curvature="0"
         class="st0"
         d="m 1093.7485,667.17544 c 0.344,0.0529 0.635,0.10584 0.9525,0.1323 0.3704,0.0265 0.5556,-0.1323 0.6615,-0.47625 0.079,-0.23813 0.053,-0.4498 0.053,-0.68792 0,-1.79917 0,-3.59833 0,-5.3975 0,-0.26458 0.053,-0.34396 0.3175,-0.37042 0.8202,-0.0529 1.6404,-0.10583 2.4606,-0.18521 0.1852,-0.0264 0.2646,0 0.2646,0.21167 0,2.27542 0,4.55083 -0.027,6.82625 0,0.34396 -0.079,0.66146 -0.1587,1.00542 -0.3175,1.11125 -1.0319,1.74625 -2.1961,1.905 -0.4762,0.0794 -0.9789,0.0529 -1.4552,0.0794 -0.1587,0 -0.2381,-0.0529 -0.2646,-0.21166 -0.1852,-0.9525 -0.3968,-1.87855 -0.6085,-2.83105 z"
         id="path8821" />
      <path
         style="fill:#dc4654;stroke-width:0.26458332"
         inkscape:connector-curvature="0"
         class="st0"
         d="m 1131.6633,660.8519 c 0.7673,-0.23812 1.4552,-0.42333 2.1431,-0.635 0.1588,-0.0529 0.2117,0.0265 0.2646,0.13229 0.3969,0.635 0.5027,1.32292 0.344,2.06375 -0.1323,0.68792 -0.4234,1.34938 -0.688,2.01084 -0.053,0.10583 -0.1323,0.15875 -0.2381,0.15875 -0.4762,0 -0.9789,0 -1.4552,0 -0.1852,0 -0.1852,-0.0794 -0.1587,-0.23813 0.1587,-0.52916 0.3439,-1.03187 0.4233,-1.5875 0.1058,-0.71437 0.053,-1.37583 -0.635,-1.905 z"
         id="path8823" />
      <path
         style="fill:#dc4654;stroke-width:0.26458332"
         inkscape:connector-curvature="0"
         class="st0"
         d="m 1220.7485,662.59815 c -0.7144,0 -1.27,-0.55562 -1.27,-1.24354 0,-0.68792 0.5556,-1.21708 1.27,-1.21708 0.7144,0 1.27,0.55562 1.27,1.24354 0,0.66146 -0.5821,1.21708 -1.27,1.21708 z m 0.9525,-1.27 c 0,-0.55562 -0.4233,-0.97896 -0.9525,-0.97896 -0.5292,0 -0.9525,0.42334 -0.9525,0.97896 0,0.55563 0.4233,1.00542 0.979,0.97896 0.5291,0.0265 0.926,-0.42333 0.926,-0.97896 z"
         id="path8825" />
      <path
         id="path8827"
         d="m 1220.3252,661.91024 v -1.05834 h 0.4498 c 0.1058,0 0.1852,0 0.2381,0.0265 0.053,0.0265 0.1058,0.0529 0.1323,0.10583 0.026,0.0529 0.053,0.10584 0.053,0.15875 0,0.0794 -0.026,0.15875 -0.079,0.18521 -0.053,0.0529 -0.1058,0.0794 -0.2117,0.10584 0.053,0.0264 0.079,0.0529 0.1059,0.0794 0.026,0.0265 0.079,0.0794 0.1323,0.18521 l 0.1323,0.21167 h -0.2646 l -0.1323,-0.21167 c -0.053,-0.0794 -0.1058,-0.13229 -0.1058,-0.15875 -0.027,-0.0265 -0.053,-0.0265 -0.053,-0.0529 -0.026,0 -0.053,0 -0.1058,0 h -0.053 v 0.44979 h -0.2381 z m 0.2116,-0.60855 h 0.1588 c 0.1058,0 0.1587,0 0.1852,0 0.026,0 0.053,-0.0264 0.053,-0.0529 0.026,-0.0265 0.026,-0.0529 0.026,-0.0794 0,-0.0265 0,-0.0529 -0.026,-0.0794 -0.026,-0.0265 -0.053,-0.0265 -0.079,-0.0529 -0.026,0 -0.079,0 -0.1587,0 h -0.1588 z"
         class="st0"
         inkscape:connector-curvature="0"
         style="fill:#dc4654;stroke-width:0.26458332" />
      <path
         style="fill:#707070;stroke-width:0.26458332"
         inkscape:connector-curvature="0"
         class="st1"
         d="m 1125.8954,673.28732 h -1.1113 v 1.03187 h 1.2436 v 0.3175 h -1.614 v -2.8575 h 1.5346 v 0.3175 h -1.1642 v 0.89959 h 1.1113 z"
         id="path8833" />
      <path
         style="fill:#707070;stroke-width:0.26458332"
         inkscape:connector-curvature="0"
         class="st1"
         d="m 1126.8214,673.12857 c 0,-0.21167 0,-0.39688 -0.026,-0.55563 h 0.3175 l 0.026,0.3175 v 0 c 0.1058,-0.1852 0.3175,-0.37041 0.635,-0.37041 0.2911,0 0.5027,0.15875 0.5821,0.42333 v 0 c 0.053,-0.10583 0.1323,-0.21167 0.2381,-0.26458 0.1323,-0.10584 0.2646,-0.13229 0.4498,-0.13229 0.2646,0 0.6615,0.1852 0.6615,0.89958 v 1.21708 h -0.3704 v -1.16416 c 0,-0.39688 -0.1323,-0.635 -0.4498,-0.635 -0.2117,0 -0.3705,0.15875 -0.4498,0.34395 -0.027,0.0529 -0.027,0.10584 -0.027,0.18521 v 1.27 h -0.3704 v -1.21708 c 0,-0.3175 -0.1323,-0.55563 -0.4233,-0.55563 -0.2382,0 -0.3969,0.18521 -0.4498,0.37042 -0.027,0.0529 -0.027,0.10583 -0.027,0.18521 v 1.24354 h -0.3175 z"
         id="path8835" />
      <path
         style="fill:#707070;stroke-width:0.26458332"
         inkscape:connector-curvature="0"
         class="st1"
         d="m 1130.6843,673.2344 c 0,-0.26458 0,-0.47625 -0.026,-0.66146 h 0.3439 l 0.026,0.34396 v 0 c 0.1587,-0.23812 0.3969,-0.39687 0.7408,-0.39687 0.5027,0 0.8731,0.42333 0.8731,1.03187 0,0.74084 -0.4497,1.11125 -0.926,1.11125 -0.2646,0 -0.5027,-0.10583 -0.635,-0.3175 v 0 1.11125 h -0.3704 v -2.2225 z m 0.3704,0.55563 c 0,0.0529 0,0.10583 0.027,0.15875 0.079,0.26458 0.291,0.42333 0.5556,0.42333 0.3969,0 0.635,-0.3175 0.635,-0.79375 0,-0.42333 -0.2116,-0.76729 -0.6085,-0.76729 -0.2646,0 -0.5027,0.18521 -0.5556,0.44979 0,0.0529 -0.026,0.10583 -0.026,0.15875 v 0.37042 z"
         id="path8837" />
      <path
         style="fill:#707070;stroke-width:0.26458332"
         inkscape:connector-curvature="0"
         class="st1"
         d="m 1135.2616,673.57836 c 0,0.76729 -0.5291,1.08479 -1.0319,1.08479 -0.5556,0 -0.9789,-0.39687 -0.9789,-1.05833 0,-0.68792 0.4498,-1.08479 1.0054,-1.08479 0.6085,0 1.0054,0.42333 1.0054,1.05833 z m -1.6139,0.0265 c 0,0.44979 0.2645,0.79375 0.635,0.79375 0.3439,0 0.635,-0.34396 0.635,-0.79375 0,-0.34396 -0.1852,-0.79375 -0.6086,-0.79375 -0.4762,0 -0.6614,0.39687 -0.6614,0.79375 z"
         id="path8839" />
      <path
         style="fill:#707070;stroke-width:0.26458332"
         inkscape:connector-curvature="0"
         class="st1"
         d="m 1136.1877,672.57294 0.2645,1.03188 c 0.053,0.23812 0.1059,0.44979 0.1588,0.66146 v 0 c 0.053,-0.21167 0.1058,-0.42334 0.1852,-0.635 l 0.344,-1.05834 h 0.3175 l 0.3175,1.03188 c 0.079,0.23812 0.1323,0.44979 0.1852,0.66146 v 0 c 0.026,-0.21167 0.079,-0.42334 0.1587,-0.66146 l 0.2911,-1.03188 h 0.3704 l -0.6615,2.0373 h -0.3439 l -0.3175,-0.97896 c -0.079,-0.23813 -0.1323,-0.42334 -0.1852,-0.66146 v 0 c -0.053,0.23812 -0.1059,0.44979 -0.1853,0.68792 l -0.3175,0.97895 h -0.3439 l -0.6086,-2.03729 h 0.3705 z"
         id="path8841" />
      <path
         style="fill:#707070;stroke-width:0.26458332"
         inkscape:connector-curvature="0"
         class="st1"
         d="m 1139.6272,673.65774 c 0,0.5027 0.3175,0.71437 0.7144,0.71437 0.2646,0 0.4234,-0.0529 0.5556,-0.10583 l 0.053,0.26458 c -0.1323,0.0529 -0.344,0.13229 -0.688,0.13229 -0.635,0 -1.0054,-0.42333 -1.0054,-1.03187 0,-0.60854 0.3704,-1.11125 0.9525,-1.11125 0.6615,0 0.8467,0.58208 0.8467,0.9525 0,0.0794 0,0.13229 0,0.18521 z m 1.1113,-0.26459 c 0,-0.23812 -0.1058,-0.60854 -0.5292,-0.60854 -0.3704,0 -0.5291,0.34396 -0.5821,0.60854 z"
         id="path8843" />
      <path
         style="fill:#707070;stroke-width:0.26458332"
         inkscape:connector-curvature="0"
         class="st1"
         d="m 1141.8762,673.20794 c 0,-0.23812 0,-0.44979 -0.026,-0.635 h 0.3175 v 0.39688 h 0.026 c 0.1058,-0.26458 0.3175,-0.44979 0.5556,-0.44979 0.053,0 0.079,0 0.1059,0 v 0.34396 c -0.026,0 -0.079,0 -0.1323,0 -0.2646,0 -0.4498,0.21166 -0.5027,0.47625 0,0.0529 -0.026,0.10583 -0.026,0.1852 v 1.0848 h -0.3704 v -1.4023 z"
         id="path8845" />
      <path
         style="fill:#707070;stroke-width:0.26458332"
         inkscape:connector-curvature="0"
         class="st1"
         d="m 1144.0193,671.99086 c 0,0.13229 -0.079,0.23813 -0.2381,0.23813 -0.1323,0 -0.2117,-0.10584 -0.2117,-0.23813 0,-0.13229 0.1059,-0.23812 0.2382,-0.23812 0.1323,0 0.2116,0.10583 0.2116,0.23812 z m -0.4233,2.61938 v -2.0373 h 0.3704 v 2.0373 z"
         id="path8847" />
      <path
         style="fill:#707070;stroke-width:0.26458332"
         inkscape:connector-curvature="0"
         class="st1"
         d="m 1144.9189,673.12857 c 0,-0.21167 0,-0.39688 -0.026,-0.55563 h 0.3175 l 0.026,0.34396 v 0 c 0.1058,-0.18521 0.344,-0.39687 0.6879,-0.39687 0.2911,0 0.7144,0.15875 0.7144,0.87312 v 1.21709 h -0.3704 v -1.19063 c 0,-0.3175 -0.1323,-0.60854 -0.4763,-0.60854 -0.2381,0 -0.4233,0.18521 -0.5027,0.37042 -0.026,0.0529 -0.026,0.10583 -0.026,0.1852 v 1.24355 h -0.3704 v -1.48167 z"
         id="path8849" />
      <path
         style="fill:#707070;stroke-width:0.26458332"
         inkscape:connector-curvature="0"
         class="st1"
         d="m 1149.3639,672.57294 c 0,0.15875 -0.026,0.3175 -0.026,0.55563 v 1.19062 c 0,0.47625 -0.1059,0.7673 -0.2911,0.92605 -0.2117,0.1852 -0.4762,0.23812 -0.7408,0.23812 -0.2381,0 -0.5292,-0.0529 -0.6879,-0.15875 l 0.1058,-0.29104 c 0.1323,0.0794 0.344,0.15875 0.6085,0.15875 0.3705,0 0.6615,-0.21167 0.6615,-0.71438 v -0.23812 0 c -0.1058,0.18521 -0.344,0.34396 -0.6615,0.34396 -0.5027,0 -0.8731,-0.42334 -0.8731,-1.00542 0,-0.68792 0.4498,-1.08479 0.9261,-1.08479 0.3439,0 0.5556,0.18521 0.635,0.34396 v 0 l 0.026,-0.3175 h 0.3175 z m -0.3969,0.82021 c 0,-0.0529 0,-0.10583 -0.026,-0.15875 -0.079,-0.21166 -0.2381,-0.39687 -0.5292,-0.39687 -0.3439,0 -0.6085,0.29104 -0.6085,0.76729 0,0.39687 0.2116,0.74083 0.6085,0.74083 0.2381,0 0.4233,-0.13229 0.5292,-0.37041 0.026,-0.0529 0.026,-0.1323 0.026,-0.21167 z"
         id="path8851" />
      <path
         style="fill:#707070;stroke-width:0.26458332"
         inkscape:connector-curvature="0"
         class="st1"
         d="m 1151.9833,673.71065 -0.2911,0.89959 h -0.3704 l 0.979,-2.8575 h 0.4498 l 0.9789,2.8575 h -0.3968 l -0.3175,-0.89959 z m 0.926,-0.26458 -0.291,-0.82021 c -0.053,-0.18521 -0.1058,-0.34396 -0.1588,-0.52917 v 0 c -0.053,0.15875 -0.079,0.34396 -0.1323,0.52917 l -0.291,0.82021 z"
         id="path8853" />
      <path
         style="fill:#707070;stroke-width:0.26458332"
         inkscape:connector-curvature="0"
         class="st1"
         d="m 1154.4175,673.20794 c 0,-0.23812 0,-0.44979 -0.026,-0.635 h 0.3175 v 0.39688 h 0.026 c 0.1058,-0.26458 0.3175,-0.44979 0.5556,-0.44979 0.053,0 0.079,0 0.1058,0 v 0.34396 c -0.026,0 -0.079,0 -0.1323,0 -0.2646,0 -0.4498,0.21166 -0.5027,0.47625 0,0.0529 -0.026,0.10583 -0.026,0.1852 v 1.0848 h -0.3705 v -1.4023 z"
         id="path8855" />
      <path
         style="fill:#707070;stroke-width:0.26458332"
         inkscape:connector-curvature="0"
         class="st1"
         d="m 1156.6664,671.99086 v 0.58208 h 0.5292 v 0.29105 h -0.5292 v 1.11125 c 0,0.26458 0.079,0.39687 0.2911,0.39687 0.1058,0 0.1587,0 0.2116,-0.0265 l 0.026,0.29104 c -0.079,0.0265 -0.1852,0.0529 -0.3175,0.0529 -0.1852,0 -0.3175,-0.0529 -0.3969,-0.15875 -0.1058,-0.10583 -0.1323,-0.29104 -0.1323,-0.52917 v -1.11125 h -0.3175 v -0.29104 h 0.3175 v -0.50271 z"
         id="path8857" />
      <path
         style="fill:#707070;stroke-width:0.26458332"
         inkscape:connector-curvature="0"
         class="st1"
         d="m 1158.3597,671.99086 c 0,0.13229 -0.079,0.23813 -0.2381,0.23813 -0.1323,0 -0.2116,-0.10584 -0.2116,-0.23813 0,-0.13229 0.1058,-0.23812 0.2381,-0.23812 0.1323,0 0.2116,0.10583 0.2116,0.23812 z m -0.3968,2.61938 v -2.0373 h 0.3704 v 2.0373 z"
         id="path8859" />
      <path
         style="fill:#707070;stroke-width:0.26458332"
         inkscape:connector-curvature="0"
         class="st1"
         d="m 1159.2329,674.23982 c 0.1058,0.0794 0.3175,0.15875 0.5027,0.15875 0.2646,0 0.3969,-0.13229 0.3969,-0.3175 0,-0.18521 -0.1059,-0.26458 -0.3705,-0.37042 -0.3704,-0.13229 -0.5291,-0.34396 -0.5291,-0.58208 0,-0.3175 0.2646,-0.60854 0.7143,-0.60854 0.2117,0 0.3969,0.0529 0.5028,0.13229 l -0.1059,0.26458 c -0.079,-0.0529 -0.2381,-0.10583 -0.4233,-0.10583 -0.2117,0 -0.344,0.13229 -0.344,0.29104 0,0.15875 0.1323,0.23813 0.3969,0.34396 0.344,0.13229 0.5292,0.3175 0.5292,0.60854 0,0.37042 -0.2911,0.60854 -0.7673,0.60854 -0.2117,0 -0.4234,-0.0529 -0.5821,-0.13229 z"
         id="path8861" />
      <path
         style="fill:#707070;stroke-width:0.26458332"
         inkscape:connector-curvature="0"
         class="st1"
         d="m 1161.72,671.99086 v 0.58208 h 0.5291 v 0.29105 h -0.5291 v 1.11125 c 0,0.26458 0.079,0.39687 0.291,0.39687 0.1058,0 0.1587,0 0.2117,-0.0265 l 0.026,0.29104 c -0.079,0.0265 -0.1852,0.0529 -0.3175,0.0529 -0.1852,0 -0.3175,-0.0529 -0.3969,-0.15875 -0.1058,-0.10583 -0.1322,-0.29104 -0.1322,-0.52917 v -1.11125 h -0.3175 v -0.29104 h 0.3175 v -0.50271 z"
         id="path8863" />
      <path
         style="fill:#707070;stroke-width:0.26458332"
         inkscape:connector-curvature="0"
         class="st1"
         d="m 1162.937,674.23982 c 0.1059,0.0794 0.3175,0.15875 0.5027,0.15875 0.2646,0 0.3969,-0.13229 0.3969,-0.3175 0,-0.18521 -0.1058,-0.26458 -0.3704,-0.37042 -0.3704,-0.13229 -0.5292,-0.34396 -0.5292,-0.58208 0,-0.3175 0.2646,-0.60854 0.7144,-0.60854 0.2117,0 0.3969,0.0529 0.5027,0.13229 l -0.1058,0.26458 c -0.079,-0.0529 -0.2381,-0.10583 -0.4233,-0.10583 -0.2117,0 -0.344,0.13229 -0.344,0.29104 0,0.15875 0.1323,0.23813 0.3969,0.34396 0.3439,0.13229 0.5291,0.3175 0.5291,0.60854 0,0.37042 -0.291,0.60854 -0.7673,0.60854 -0.2116,0 -0.4233,-0.0529 -0.582,-0.13229 z"
         id="path8865" />
      <path
         style="fill:#707070;stroke-width:0.26458332"
         inkscape:connector-curvature="0"
         class="st1"
         d="m 1166.1914,674.16044 c 0.1588,0.10584 0.3969,0.18521 0.6615,0.18521 0.3704,0 0.6085,-0.21166 0.6085,-0.47625 0,-0.26458 -0.1587,-0.42333 -0.5292,-0.55562 -0.4762,-0.15875 -0.7408,-0.39688 -0.7408,-0.82021 0,-0.44979 0.3704,-0.76729 0.9261,-0.76729 0.291,0 0.5027,0.0794 0.635,0.13229 l -0.1059,0.29104 c -0.1058,-0.0529 -0.291,-0.13229 -0.5291,-0.13229 -0.3969,0 -0.5292,0.23812 -0.5292,0.42333 0,0.26459 0.1852,0.39688 0.5556,0.55563 0.4763,0.18521 0.7408,0.42333 0.7408,0.84666 0,0.4498 -0.3175,0.82021 -1.0054,0.82021 -0.2646,0 -0.5821,-0.0794 -0.7408,-0.18521 z"
         id="path8867" />
      <path
         style="fill:#707070;stroke-width:0.26458332"
         inkscape:connector-curvature="0"
         class="st1"
         d="m 1169.0489,671.99086 c 0,0.13229 -0.079,0.23813 -0.2381,0.23813 -0.1323,0 -0.2117,-0.10584 -0.2117,-0.23813 0,-0.13229 0.1059,-0.23812 0.2381,-0.23812 0.1323,0 0.2117,0.10583 0.2117,0.23812 z m -0.3969,2.61938 v -2.0373 h 0.3705 v 2.0373 z"
         id="path8869" />
      <path
         style="fill:#707070;stroke-width:0.26458332"
         inkscape:connector-curvature="0"
         class="st1"
         d="m 1169.9485,673.12857 c 0,-0.21167 0,-0.39688 -0.026,-0.55563 h 0.3175 l 0.027,0.34396 v 0 c 0.1058,-0.18521 0.344,-0.39687 0.6879,-0.39687 0.2911,0 0.7144,0.15875 0.7144,0.87312 v 1.21709 h -0.3704 v -1.19063 c 0,-0.3175 -0.1323,-0.60854 -0.4763,-0.60854 -0.2381,0 -0.4233,0.18521 -0.5027,0.37042 -0.026,0.0529 -0.026,0.10583 -0.026,0.1852 v 1.24355 h -0.344 z"
         id="path8871" />
      <path
         style="fill:#707070;stroke-width:0.26458332"
         inkscape:connector-curvature="0"
         class="st1"
         d="m 1174.1025,674.55732 c -0.1059,0.0529 -0.3175,0.10583 -0.5821,0.10583 -0.6086,0 -1.0319,-0.42333 -1.0319,-1.05833 0,-0.635 0.4233,-1.08479 1.1112,-1.08479 0.2117,0 0.4234,0.0529 0.5292,0.10583 l -0.079,0.29104 c -0.079,-0.0529 -0.2381,-0.10583 -0.4233,-0.10583 -0.4762,0 -0.7144,0.34396 -0.7144,0.76729 0,0.47625 0.3175,0.76729 0.7144,0.76729 0.2117,0 0.344,-0.0529 0.4498,-0.10583 z"
         id="path8873" />
      <path
         style="fill:#707070;stroke-width:0.26458332"
         inkscape:connector-curvature="0"
         class="st1"
         d="m 1175.0285,673.65774 c 0,0.5027 0.3175,0.71437 0.7144,0.71437 0.2646,0 0.4233,-0.0529 0.5556,-0.10583 l 0.053,0.26458 c -0.1323,0.0529 -0.3439,0.13229 -0.6879,0.13229 -0.635,0 -1.0054,-0.42333 -1.0054,-1.03187 0,-0.60854 0.3704,-1.11125 0.9525,-1.11125 0.6614,0 0.8466,0.58208 0.8466,0.9525 0,0.0794 0,0.13229 0,0.18521 z m 1.1112,-0.26459 c 0,-0.23812 -0.1058,-0.60854 -0.5291,-0.60854 -0.3704,0 -0.5292,0.34396 -0.5821,0.60854 z"
         id="path8875" />
      <path
         style="fill:#707070;stroke-width:0.26458332"
         inkscape:connector-curvature="0"
         class="st1"
         d="m 1179.1825,672.20253 v 0 l -0.4763,0.26458 -0.079,-0.29104 0.6086,-0.3175 h 0.3175 v 2.75167 h -0.3704 z"
         id="path8877" />
      <path
         style="fill:#707070;stroke-width:0.26458332"
         inkscape:connector-curvature="0"
         class="st1"
         d="m 1181.0875,674.34565 c 0.079,0 0.1852,0 0.291,0 0.2117,-0.0265 0.4233,-0.10583 0.5821,-0.26458 0.1852,-0.15875 0.3175,-0.39688 0.3704,-0.74083 v 0 c -0.1588,0.1852 -0.3704,0.29104 -0.635,0.29104 -0.5027,0 -0.8202,-0.37042 -0.8202,-0.84667 0,-0.52917 0.3704,-0.97896 0.9525,-0.97896 0.5821,0 0.8996,0.44979 0.8996,1.16417 0,0.60854 -0.2117,1.03187 -0.4763,1.29646 -0.2116,0.21166 -0.5027,0.34396 -0.7937,0.37041 -0.1323,0.0265 -0.2646,0.0265 -0.344,0.0265 v -0.3175 z m 0.1322,-1.56104 c 0,0.34396 0.2117,0.58208 0.5292,0.58208 0.2381,0 0.4498,-0.13229 0.5292,-0.29104 0.026,-0.0265 0.026,-0.0794 0.026,-0.13229 0,-0.47625 -0.1852,-0.82021 -0.5556,-0.82021 -0.291,-0.0265 -0.5292,0.26459 -0.5292,0.66146 z"
         id="path8879" />
      <path
         style="fill:#707070;stroke-width:0.26458332"
         inkscape:connector-curvature="0"
         class="st1"
         d="m 1184.9504,672.12315 c -0.079,0 -0.1852,0 -0.2911,0.0265 -0.5821,0.10583 -0.8996,0.52917 -0.9525,0.97896 v 0 c 0.1323,-0.18521 0.3704,-0.3175 0.6615,-0.3175 0.4762,0 0.8202,0.34396 0.8202,0.89958 0,0.50271 -0.344,0.97896 -0.926,0.97896 -0.5821,0 -0.979,-0.44979 -0.979,-1.16417 0,-0.52916 0.1852,-0.97895 0.4762,-1.24354 0.2382,-0.21166 0.5292,-0.37041 0.8732,-0.39687 0.1058,-0.0265 0.2116,-0.0265 0.2646,-0.0265 v 0.26458 z m -0.1059,1.5875 c 0,-0.39687 -0.2116,-0.635 -0.5556,-0.635 -0.2117,0 -0.4233,0.13229 -0.5292,0.34396 -0.026,0.0529 -0.053,0.10583 -0.053,0.15875 0,0.44979 0.2117,0.79375 0.6086,0.79375 0.3175,0 0.5291,-0.26458 0.5291,-0.66146 z"
         id="path8881" />
      <path
         style="fill:#707070;stroke-width:0.26458332"
         inkscape:connector-curvature="0"
         class="st1"
         d="m 1185.85,673.92232 c 0,-0.34396 0.2116,-0.58208 0.5556,-0.74083 v 0 c -0.3175,-0.1323 -0.4234,-0.37042 -0.4234,-0.60855 0,-0.42333 0.3705,-0.74083 0.8467,-0.74083 0.5292,0 0.7938,0.34396 0.7938,0.68792 0,0.23812 -0.1059,0.47625 -0.4498,0.635 v 0 c 0.3439,0.13229 0.5556,0.37041 0.5556,0.71437 0,0.47625 -0.4233,0.79375 -0.926,0.79375 -0.6086,0 -0.9525,-0.34396 -0.9525,-0.74083 z m 1.4816,-0.0265 c 0,-0.34396 -0.2381,-0.50271 -0.6085,-0.60854 -0.3175,0.10583 -0.5027,0.3175 -0.5027,0.55562 0,0.29105 0.2116,0.52917 0.5556,0.52917 0.3175,0.0265 0.5556,-0.18521 0.5556,-0.47625 z m -1.0319,-1.37583 c 0,0.26458 0.2117,0.42333 0.5292,0.50271 0.2381,-0.0794 0.4233,-0.23813 0.4233,-0.50271 0,-0.21167 -0.1322,-0.44979 -0.4762,-0.44979 -0.3175,0.0264 -0.4763,0.21166 -0.4763,0.44979 z"
         id="path8883" />
      <path
         style="fill:#707070;stroke-width:0.26458332"
         inkscape:connector-curvature="0"
         class="st1"
         d="m 1188.4164,674.39857 c 0,-0.15875 0.1058,-0.26458 0.2381,-0.26458 0.1588,0 0.2382,0.10583 0.2382,0.26458 0,0.15875 -0.1059,0.26458 -0.2382,0.26458 -0.1323,0 -0.2381,-0.10583 -0.2381,-0.26458 z m 0.1058,-0.60854 -0.053,-2.03729 h 0.3969 l -0.053,2.03729 z"
         id="path8885" />
      <line
         style="fill:none;stroke:#707070;stroke-width:0.21166667;stroke-miterlimit:10"
         class="st2"
         x1="1094.1719"
         y1="673.15503"
         x2="1123.0115"
         y2="673.15503"
         id="line8889" />
      <line
         style="fill:#707070;stroke-width:0.26458332"
         class="st1"
         x1="1094.1719"
         y1="673.15503"
         x2="1123.0115"
         y2="673.15503"
         id="line8891" />
      <line
         style="fill:none;stroke:#707070;stroke-width:0.21166667;stroke-miterlimit:10"
         class="st2"
         x1="1190.3479"
         y1="673.15503"
         x2="1220.5104"
         y2="673.15503"
         id="line8895" />
      <line
         style="fill:#707070;stroke-width:0.26458332"
         class="st1"
         x1="1190.3479"
         y1="673.15503"
         x2="1220.5104"
         y2="673.15503"
         id="line8897" />
    </g>
  </g>
</svg>
