<svg class="SALogo_mobileSaLogoIcon__5BxUb" fill="none" height="30" viewBox="0 0 200 30" width="200" xmlns="http://www.w3.org/2000/svg"><path d="M40.042 17.509c.306 1.122 1.364 1.782 3.008 1.782 1.38 0 2.229-.463 2.229-1.423 0-1.422-1.819-1.336-3.68-1.782-2.055-.488-4.608-1.422-4.608-4.557 0-3.033 2.334-4.54 5.735-4.54 3.095 0 5.307 1.233 6.146 3.88l-3.462.908c-.367-1.08-1.233-1.679-2.745-1.679-1.382 0-1.967.531-1.967 1.31 0 1.252 1.451 1.44 3.575 1.869 2.23.428 4.695 1.353 4.695 4.557 0 3.058-2.185 4.584-5.884 4.584-2.64 0-5.63-.789-6.495-4.01l3.453-.9zM56.758 19.667l-.909 2.459h-3.83L57.86 7.279h4.135l5.867 14.847h-3.9l-.909-2.459h-6.295zm4.022-6.194c-.472-1.233-.822-2.159-.848-2.184h-.061c-.018.017-.367.934-.848 2.167l-1.084 2.973h3.916l-1.075-2.956zM75.59 19.667l-.91 2.459h-3.828l5.84-14.847h4.135l5.867 14.847h-3.9l-.909-2.459H75.59zm4.03-6.194c-.472-1.233-.821-2.159-.848-2.184h-.06c-.018.017-.368.934-.849 2.167L76.78 16.43h3.917l-1.075-2.956zM96.022 10.586v11.54h-3.637v-11.54h-4.634V7.28h12.905v3.307h-4.634zM118.325 17.74c-1.128 2.887-3.917 4.686-7.204 4.686-4.52 0-7.86-3.118-7.86-7.762 0-4.514 3.331-7.676 7.86-7.676 3.488 0 6.041 1.885 7.055 4.284l-3.593.95c-.778-1.19-2.011-1.884-3.637-1.884-2.465 0-4.03 1.782-4.03 4.37 0 2.63 1.67 4.351 4.004 4.351 1.993 0 3.226-1.02 3.829-2.244l3.576.925zM131.701 16.292h-5.822v5.834h-3.637V7.279h3.637v5.603h5.822V7.28h3.637v14.847h-3.637v-5.834zM139.928 7.28h3.637v14.846h-3.637V7.279zM157.379 19.667l-.909 2.459h-3.83l5.841-14.847h4.135l5.866 14.847h-3.899l-.909-2.459h-6.295zm4.022-6.194c-.472-1.233-.822-2.159-.848-2.184h-.062c-.017.017-.367.934-.848 2.167l-1.084 2.973h3.917l-1.075-2.956zM177.4 17.226h-1.626v4.9h-3.637V7.279h5.761c3.812 0 6.041 1.954 6.041 5.03 0 2.038-1.014 3.537-2.858 4.223l3.462 5.602h-4.31l-2.833-4.908zm.734-2.836c1.338 0 2.081-.66 2.081-1.91 0-1.234-.691-1.97-2.098-1.97h-2.335v3.88h2.352zM195.366 10.586v11.54h-3.637v-11.54h-4.633V7.28H200v3.307h-4.634z" fill="#1E1E1E"></path><path d="M16.561 5.244c.93-.244 1.851-.407 2.743-.484.408-.033.815-.057 1.208-.057.676 0 1.328.053 1.952.153a10.409 10.409 0 0 0-1.444-1.459c-.167-.005-.335-.014-.508-.014a16.66 16.66 0 0 0-3.95.502c-.912.22-1.827.512-2.738.89-.82.335-1.64.732-2.441 1.191a20.816 20.816 0 0 0-2.33 1.564c-.374.8-.69 1.66-.94 2.574a18.707 18.707 0 0 1 3.927-2.995 18.73 18.73 0 0 1 4.521-1.865zM29.277 7.717c-.83-1.444-2.095-2.535-3.606-3.253a10.731 10.731 0 0 0-2.502-.818c.306.35.604.723.882 1.115.139.201.278.411.407.622.22.086.441.172.648.273 1.304.621 2.344 1.53 3.03 2.717.58 1.009.858 2.133.863 3.33 0 .42-.038.846-.11 1.281-.101.65-.283 1.316-.537 1.98a13.051 13.051 0 0 1-1.42 2.699c-.028.043-.062.08-.09.124-.135.966-.332 1.894-.595 2.784a16.886 16.886 0 0 0 1.774-2.167c.326-.478.618-.966.882-1.464.345-.655.633-1.315.858-1.985.365-1.086.561-2.186.561-3.258 0-1.401-.33-2.765-1.035-3.99l-.01.01zM16.619 24.757c-.93.244-1.85.406-2.743.483-.407.033-.815.057-1.208.057-.676 0-1.328-.052-1.951-.153.45.555.934 1.038 1.443 1.46.168.004.335.014.508.014 1.275 0 2.604-.173 3.95-.503.912-.22 1.828-.512 2.739-.89.82-.334 1.64-.732 2.44-1.19a20.832 20.832 0 0 0 2.33-1.565c.374-.799.69-1.66.94-2.573a18.887 18.887 0 0 1-8.448 4.864v-.004zM8.722 24.618a8.766 8.766 0 0 1-.647-.273c-1.305-.622-2.345-1.53-3.03-2.717-.58-1.01-.859-2.134-.864-3.33 0-.42.039-.851.11-1.281.106-.651.284-1.316.538-1.98a13.05 13.05 0 0 1 1.419-2.699c.029-.043.062-.081.091-.124.134-.966.33-1.895.595-2.784a16.878 16.878 0 0 0-1.775 2.167 15.39 15.39 0 0 0-.882 1.463 13.496 13.496 0 0 0-.858 1.986c-.36 1.08-.556 2.176-.556 3.253 0 1.401.33 2.764 1.035 3.989.83 1.445 2.096 2.535 3.606 3.253.777.368 1.616.64 2.503.818-.307-.35-.604-.723-.882-1.115-.14-.2-.278-.411-.408-.622l.005-.004z" fill="#F7BB14"></path><path d="M21.05 26.578a8.277 8.277 0 0 1-.998.713c-1.079.65-2.244 1-3.467 1-1.222 0-2.388-.35-3.466-1-.331-.201-.652-.436-.964-.689a9.921 9.921 0 0 1-1.443-1.459 13.085 13.085 0 0 1-1.645-2.626l-.014-.034a19.318 19.318 0 0 1-2.124-1.89 16.277 16.277 0 0 0 1.788 4.029c.134.21.269.42.408.621.278.393.57.766.882 1.115a10.48 10.48 0 0 0 2.43 2.062c1.262.76 2.671 1.19 4.148 1.19 1.482 0 2.892-.43 4.148-1.19.896-.54 1.716-1.249 2.45-2.09-.686.138-1.405.22-2.139.248h.005zM7.466 15.002c0-1.732.23-3.377.642-4.894.25-.913.566-1.774.94-2.573.34-.727.734-1.407 1.16-2.019.154-.22.312-.426.48-.631a10.23 10.23 0 0 0-1.985.526c-.298.478-.576.98-.825 1.512a16.938 16.938 0 0 0-.945 2.506c-.263.89-.46 1.818-.594 2.784a20.111 20.111 0 0 0 0 5.611 15.885 15.885 0 0 0 1.774 2.096 18.585 18.585 0 0 1-.647-4.918zM13.123 2.713c1.08-.65 2.244-1 3.467-1 1.223 0 2.388.35 3.467 1 .33.2.652.435.963.688.513.417.993.905 1.444 1.46.618.76 1.174 1.64 1.644 2.626l.014.033a19.309 19.309 0 0 1 2.125 1.89 16.275 16.275 0 0 0-1.789-4.028 19.9 19.9 0 0 0-.407-.622c-.278-.392-.571-.765-.883-1.115a10.483 10.483 0 0 0-2.43-2.061C19.475.824 18.066.393 16.59.393c-1.482 0-2.891.43-4.147 1.19-.897.541-1.717 1.25-2.45 2.091.685-.139 1.404-.22 2.138-.249.321-.263.652-.507.997-.712h-.005zM26.837 12.228l-.015-.072-.163-.742-1.601-1.344.01.048c.416 1.517.646 3.062.646 4.946 0 1.244-.225 3.306-.632 4.817 0 0-.005.01-.01.01a16.01 16.01 0 0 1-.94 2.574c-.34.727-.733 1.406-1.16 2.018-.154.22-.312.426-.48.632a10.234 10.234 0 0 0 1.985-.526c.298-.479.576-.981.825-1.512.374-.785.686-1.627.945-2.507.254-.87.45-1.78.58-2.721 0-.005.01-.01.01-.015.124-.904.196-1.516.196-2.77 0-.626-.067-1.923-.197-2.836z" fill="#39C"></path><path d="M8.113 19.914a15.885 15.885 0 0 1-1.774-2.095c-.029-.043-.062-.081-.091-.12a12.827 12.827 0 0 1-1.42-2.664 9.747 9.747 0 0 0-.537 1.98c.26.484.547.962.873 1.436a17.444 17.444 0 0 0 1.77 2.148 19.318 19.318 0 0 0 2.123 1.889 21.046 21.046 0 0 0 2.374 1.579c.805.454 1.625.846 2.445 1.176a15.89 15.89 0 0 0 2.743-.483 18.607 18.607 0 0 1-4.536-1.841 18.7 18.7 0 0 1-3.965-3l-.005-.005zM29.756 14.965c-.22.67-.513 1.33-.858 1.985.072.45.115.895.115 1.325 0 1.182-.273 2.291-.844 3.291-.685 1.2-1.726 2.12-3.044 2.75-.211.101-.432.192-.657.278a10.14 10.14 0 0 1-1.985.526c-.638.106-1.304.158-1.995.158-.374 0-.753-.019-1.136-.047a19.61 19.61 0 0 1-2.738.89c1.319.315 2.623.478 3.874.478.187 0 .374-.005.561-.015.734-.029 1.453-.11 2.139-.248.891-.182 1.73-.455 2.507-.823 1.525-.727 2.796-1.828 3.62-3.287.69-1.21 1.017-2.559 1.017-3.941 0-1.091-.202-2.206-.58-3.31l.004-.01zM5.006 8.435c.686-1.201 1.726-2.12 3.045-2.75.21-.101.431-.192.656-.278a10.23 10.23 0 0 1 1.986-.527 12.251 12.251 0 0 1 1.994-.157c.374 0 .753.019 1.136.047a19.61 19.61 0 0 1 2.738-.89 16.698 16.698 0 0 0-3.874-.478c-.187 0-.374.005-.56.015-.735.028-1.454.11-2.14.248-.891.182-1.73.455-2.507.823-1.525.727-2.79 1.828-3.62 3.287-.69 1.22-1.016 2.568-1.016 3.956 0 1.09.2 2.205.58 3.31.22-.67.513-1.33.858-1.985a8.437 8.437 0 0 1-.115-1.325c0-1.182.273-2.292.844-3.292l-.005-.004zM25.062 10.086c.671.67 1.266 1.373 1.774 2.095.03.043.063.081.091.12.605.875 1.074 1.77 1.42 2.664.254-.665.436-1.33.537-1.98a14.467 14.467 0 0 0-.873-1.43 17.439 17.439 0 0 0-1.77-2.148 19.317 19.317 0 0 0-2.123-1.89 21.048 21.048 0 0 0-2.374-1.579A20.766 20.766 0 0 0 19.3 4.762c-.892.076-1.812.234-2.743.483a18.61 18.61 0 0 1 4.536 1.842 18.7 18.7 0 0 1 3.965 2.999h.005z" fill="#DA3B1F"></path></svg>